<svg xmlns="http://www.w3.org/2000/svg" width="32" height="24"><path d="M26.334 10.333H25.29c-.2-4.818-4.082-8.702-8.9-8.9V.388A.388.388 0 0 0 16 0a.388.388 0 0 0-.388.388v1.045c-4.818.198-8.701 4.082-8.9 8.9H5.668a.388.388 0 0 0-.388.388.388.388 0 0 0 .388.388h1.045c.199 4.818 4.082 8.702 8.9 8.9v3.606a.388.388 0 0 0 .388.388.388.388 0 0 0 .388-.388v-3.606c4.819-.198 8.702-4.082 8.9-8.9h1.045a.388.388 0 1 0 0-.776zm-10.72 8.9c-4.391-.198-7.927-3.733-8.125-8.124h3.398a5.137 5.137 0 0 0 4.726 4.726v3.398zm0-4.177a4.359 4.359 0 0 1-3.947-3.947H13.9c.16.867.845 1.552 1.712 1.712v2.235zm0-3.031a1.366 1.366 0 0 1-.916-.916h.915v.916zm-.916-1.692c.13-.438.477-.785.915-.915v.915h-.915zm-.797 0h-2.235a4.359 4.359 0 0 1 3.947-3.947v2.235a2.141 2.141 0 0 0-1.712 1.712zm1.712-4.726a5.137 5.137 0 0 0-4.726 4.726H7.489c.198-4.39 3.734-7.926 8.124-8.124v3.398zm.776.78a4.359 4.359 0 0 1 3.947 3.946H18.1a2.141 2.141 0 0 0-1.712-1.712V6.386zm0 3.03c.439.131.785.478.916.916h-.916v-.916zm0 1.692h.916a1.366 1.366 0 0 1-.916.916v-.916zm1.712 0h2.235a4.359 4.359 0 0 1-3.947 3.947V12.82a2.141 2.141 0 0 0 1.712-1.712zm-1.712 8.124v-3.398a5.137 5.137 0 0 0 4.727-4.726h3.397c-.198 4.39-3.733 7.926-8.124 8.124zm4.727-8.9a5.137 5.137 0 0 0-4.727-4.726V2.209c4.39.198 7.926 3.734 8.124 8.124h-3.397z"/><g transform="translate(4) scale(.04688)"/><g transform="translate(4) scale(.04688)"/><g transform="translate(4) scale(.04688)"/><g transform="translate(4) scale(.04688)"/><g transform="translate(4) scale(.04688)"/><g transform="translate(4) scale(.04688)"/><g transform="translate(4) scale(.04688)"/><g transform="translate(4) scale(.04688)"/><g transform="translate(4) scale(.04688)"/><g transform="translate(4) scale(.04688)"/><g transform="translate(4) scale(.04688)"/><g transform="translate(4) scale(.04688)"/><g transform="translate(4) scale(.04688)"/><g transform="translate(4) scale(.04688)"/><g transform="translate(4) scale(.04688)"/></svg>