<svg xmlns="http://www.w3.org/2000/svg" xml:space="preserve" width="" height="" style="shape-rendering:geometricPrecision;text-rendering:geometricPrecision;image-rendering:optimizeQuality;fill-rule:evenodd;clip-rule:evenodd" viewBox=""><defs><linearGradient id="id0" gradientUnits="objectBoundingBox" x1="10.858%" y1="18.888%" x2="89.142%" y2="81.112%"><stop offset="0" style="stop-opacity:1;stop-color:#e49b0f"/><stop offset="1" style="stop-opacity:1;stop-color:#7d492d"/></linearGradient><style>.str0{stroke:#000;stroke-miterlimit:22.9256}.fil1{fill:none}.fil6{fill:#999}.fil5{fill:#fff}.fil0{fill:url(#id0)}</style></defs><g id="Слой_x0020_1"><circle class="fil0 str0" cx="148" cy="72" r="18"/><circle class="fil0 str0" cx="100" cy="45" r="18"/><path class="fil1" d="M100 15c9.53 0 18.7 1.57 27.25 4.46-1.55 17.36 17.22 27.97 31.64 19.25 12.03 11.56 20.67 26.64 24.26 43.58-10.75 7.9-12.74 26.24.15 34.68-3.57 17.63-12.6 33.28-25.24 45.11-6.89-3.2-15.13-3.26-21.51 1.26-5.15 3.29-8.9 8.99-9.21 17.17-17.72 6.01-37.34 5.97-55.03-.13l.14-1.41c-1.21-11.95-8.09-20.27-20.2-21.02-4.26-.24-7.96.69-11.61 2.88-11.86-11.57-20.34-26.58-23.85-43.41 4.5-3.19 7.56-7.52 8.67-12.97.15-1.51.39-3.05.39-4.58-.75-6.66-3.34-13.14-9.11-17.08 3.52-17.1 12.18-32.32 24.28-43.99 12.53 7.15 32.06.72 32.06-17.95 0-.51-.02-.99-.05-1.48A84.968 84.968 0 0 1 100 15z" style="stroke:#000;stroke-width:2.36;stroke-miterlimit:22.9256"/><circle class="fil1 str0" cx="100" cy="45" r="20"/><circle class="fil1 str0" cx="52" cy="128" r="20"/><circle class="fil1 str0" cx="148" cy="128" r="20"/><circle class="fil1 str0" cx="148" cy="72" r="20"/><circle class="fil1 str0" cx="52" cy="72" r="20"/><circle class="fil1 str0" cx="100" cy="100" r="9.5"/><circle class="fil1 str0" cx="100" cy="155" r="20"/><path d="M100 135c11.05 0 20 8.95 20 20s-8.95 20-20 20-20-8.95-20-20 8.95-20 20-20zm48-43c-11.05 0-20-8.95-20-20s8.95-20 20-20 20 8.95 20 20-8.95 20-20 20zM52 52c11.05 0 20 8.95 20 20s-8.95 20-20 20-20-8.95-20-20 8.95-20 20-20zm57.5 48c0 5.25-4.25 9.5-9.5 9.5s-9.5-4.25-9.5-9.5 4.25-9.5 9.5-9.5 9.5 4.25 9.5 9.5zm38.5 8c11.05 0 20 8.95 20 20s-8.95 20-20 20-20-8.95-20-20 8.95-20 20-20zm-48 77c9.63 0 18.76-1.58 27.34-4.49.31-8.18 4.06-13.88 9.21-17.17 6.37-4.52 14.63-4.46 21.51-1.26 12.64-11.83 21.67-27.48 25.24-45.11-12.89-8.44-10.9-26.78-.15-34.68-3.59-16.94-12.23-32.02-24.26-43.58-14.42 8.72-33.19-1.89-31.64-19.25-17.45-5.9-36.75-5.93-54.22-.09.03.49.05.97.05 1.48 0 18.67-19.53 25.1-32.06 17.95-12.1 11.67-20.76 26.89-24.28 43.99 5.85 4 8.46 10.64 9.15 17.43-.21 2.15-.28 4.06-.91 6.14l-.14.43c-1.28 4.27-4.42 8.12-8.05 10.63 3.51 16.83 11.99 31.84 23.85 43.41 4.71-2.83 9.66-3.52 15.04-2.43 10.44 2.12 15.73 10.22 16.77 20.57l-.14 1.41c8.68 3 18.06 4.62 27.69 4.62zm-48-77c11.05 0 20 8.95 20 20s-8.95 20-20 20-20-8.95-20-20 8.95-20 20-20zm68-63c0 11.05-8.95 20-20 20s-20-8.95-20-20 8.95-20 20-20 20 8.95 20 20z" style="fill:#7688a1;stroke:#2b2a29;stroke-width:2.36;stroke-miterlimit:22.9256"/><path d="M100 135c11.05 0 20 8.95 20 20s-8.95 20-20 20-20-8.95-20-20 8.95-20 20-20zm48-43c-11.05 0-20-8.95-20-20s8.95-20 20-20 20 8.95 20 20-8.95 20-20 20zM52 52c11.05 0 20 8.95 20 20s-8.95 20-20 20-20-8.95-20-20 8.95-20 20-20zm57.5 48c0 5.25-4.25 9.5-9.5 9.5s-9.5-4.25-9.5-9.5 4.25-9.5 9.5-9.5 9.5 4.25 9.5 9.5zm38.5 8c11.05 0 20 8.95 20 20s-8.95 20-20 20-20-8.95-20-20 8.95-20 20-20zm-96 0c11.05 0 20 8.95 20 20s-8.95 20-20 20-20-8.95-20-20 8.95-20 20-20zm68-63c0 11.05-8.95 20-20 20s-20-8.95-20-20 8.95-20 20-20 20 8.95 20 20zm-20 140c9.63 0 18.76-1.58 27.34-4.49.31-8.18 4.06-13.88 9.21-17.17 6.37-4.52 14.63-4.46 21.51-1.26 12.64-11.83 21.67-27.48 25.24-45.11-12.89-8.44-10.9-26.78-.15-34.68-3.59-16.94-12.23-32.02-24.26-43.58-14.42 8.72-33.19-1.89-31.64-19.25-17.45-5.9-36.75-5.93-54.22-.09.03.49.05.97.05 1.48 0 18.67-19.53 25.1-32.06 17.95-12.1 11.67-20.76 26.89-24.28 43.99 5.85 4 8.46 10.64 9.15 17.43-.21 2.15-.28 4.06-.91 6.14l-.14.43c-1.28 4.27-4.42 8.12-8.05 10.63 3.51 16.83 11.99 31.84 23.85 43.41 4.71-2.83 9.66-3.52 15.04-2.43 10.44 2.12 15.73 10.22 16.77 20.57l-.14 1.41c8.68 3 18.06 4.62 27.69 4.62z" style="fill:#000;stroke:#1f1b20;stroke-width:2.36;stroke-miterlimit:22.9256"/><path class="str0" d="M100 92.5c-4.14 0-7.5 3.36-7.5 7.5 0 4.14 3.36 7.5 7.5 7.5 4.14 0 7.5-3.36 7.5-7.5 0-4.14-3.36-7.5-7.5-7.5z" style="fill:#000"/><circle class="fil5 str0" cx="100" cy="45" r="6"/><circle class="fil6 str0" cx="100" cy="45" r="4.5"/><circle class="fil5 str0" cx="148" cy="72" r="6"/><circle class="fil6 str0" cx="148" cy="72" r="4.5"/></g></svg>