<svg version="1.0" xmlns="http://www.w3.org/2000/svg" width="" height="" viewBox="0 0 512 512"><path d="M242.8 2.4c-12.4 5.1-21 12.6-31.3 27.1-11 15.4-20.4 37.6-24.5 57.5-1.7 8.1-2 13.8-2 32.7v22.9l-3.7 1.3c-4.3 1.5-9.7 6.2-12.1 10.6-1.6 2.8-1.7 15.7-2.2 156.2l-.5 153.1-2.2 2.4c-6.7 7.1-8.7 21.4-4.4 30 3.2 6.1 8.6 11.3 14.2 13.8 4.8 2 5.8 2 83.1 1.8 87.6-.3 81.4.2 89.3-7.6 5.1-5 7.7-11.2 7.8-18.6.2-9.4-1.8-15-7.5-20.7l-4.8-4.8-.2-152-.3-151.9-3-4.3c-1.7-2.3-4.9-5.2-7.1-6.3l-4.1-2.1-.6-25.5c-.5-27.2-1-30.5-6.8-48.6-7-22-17.3-39.9-30.8-53.5C277.4 4.2 270.2.6 257.5.2c-7.6-.2-9.9.1-14.7 2.2zm-27 170c1.5.8 3.8 2.6 5.2 4.1l2.5 2.7.3 137.6c.2 132 .1 137.8-1.6 141.1-2 3.7-7.2 7.1-11 7.1-4 0-9.1-2.8-11.2-6.2-2-3.3-2-4.7-2-140.7 0-135.8 0-137.4 2-140.6 3.5-5.7 10.4-7.9 15.8-5.1z"/></svg>