<svg xmlns="http://www.w3.org/2000/svg" width="533.333" height="402.667" viewBox="0 0 533.333 402.667"><path style="fill:#000;stroke-width:1.33333325" d="M498.618 354.76c6.256 1.221 11.984 1.866 12.73 1.433.744-.433.052-5.898-1.54-12.145-1.591-6.247-4.319-18.884-6.06-28.082-10.603-55.976-11.663-60.443-16.637-70.087-2.746-5.326-7.927-12.795-11.513-16.598-5.914-6.272-7.72-7.355-19.447-11.658-7.11-2.61-15.096-5.346-17.746-6.082l-4.818-1.337-4.699 17.537-4.699 17.537-2.69-1.553c-1.479-.854-3.968-1.905-5.532-2.334-1.576-.433-4.438-3.575-6.42-7.049-3.85-6.745-7.602-9.663-19.156-14.899-24.483-11.094-30.363-13.643-37.72-16.353-15.058-5.547-20.613-8.026-21.915-9.777-.71-.957-1.82-1.435-2.464-1.063-.644.372-.258 1.566.859 2.653 1.116 1.087 2.87 3.431 3.896 5.21 1.124 1.945 2.952 3.238 4.594 3.248 1.5.01 5.227 1.53 8.284 3.379 3.057 1.849 8.357 4.505 11.78 5.902 3.42 1.397 7.749 3.273 9.616 4.169l3.396 1.629-4.021 1.723c-5.587 2.393-4.197 3.691 1.536 1.436 4.213-1.658 5.662-1.493 14.992 1.705 5.68 1.947 10.737 4.25 11.238 5.117.5.868.593 4.038.204 7.045-.545 4.223-1.899 6.836-5.945 11.48-6.925 7.946-7.322 10.093-1.248 6.758 4.572-2.51 9.981-9.744 13.298-17.784l1.282-3.107.982 3.714c.54 2.042.667 6.425.282 9.738l-.7 6.024 1.506-4.934c1.363-4.463 1.763-4.785 4.196-3.38 1.48.854 3.722 1.838 4.984 2.186 1.747.483 1.009 1.268-3.098 3.297-2.966 1.464-7.328 4.333-9.694 6.375-2.383 2.057-4.974 3.232-5.81 2.634-.829-.594-1.306-.41-1.06.407.848 2.825-7.37 2.433-16.112-.768-8.864-3.246-16.514-8.242-17.464-11.406-.3-1-1.285-2.044-2.187-2.32-.903-.277-1.284-1.202-.846-2.055.437-.854.128-1.352-.687-1.108-.814.245-1.52-1.606-1.568-4.113-.083-4.377-.128-4.42-1.14-1.091-1.452 4.778 4.385 14.574 11.194 18.788 2.912 1.801 9.604 4.43 14.872 5.842 11.131 2.983 15.17 2.07 23.936-5.41 11.343-9.678 23.125-7.22 31.907 6.655 2.263 3.575 4.52 6.266 5.017 5.98.497-.288.535.507.083 1.766-.465 1.298-.042 2.332.98 2.39.99.058 1.29.585.665 1.174-.624.588-.638 3.24-.03 5.892 1.286 5.62 1.297 6.338.26 17.02-.756 7.788-5.194 22.534-8.65 28.74-.92 1.652-2.502 5.047-3.517 7.545l-1.847 4.542 29.368 7.801c16.153 4.291 34.487 8.8 40.743 10.022zm1.751-6.023c.543-.314 1.666-.062 2.496.56.917.686.53.91-.987.569-1.372-.308-2.051-.816-1.509-1.13zm-5.457-2.923c.981-.12 2.43.268 3.22.862.79.595-.013.693-1.784.219-1.771-.475-2.417-.961-1.436-1.081zm-7.123-5.28c.562-.53-.172-1.282-1.63-1.673-1.459-.39-2.837-.02-3.063.823-.226.844-.932.19-1.569-1.453-.636-1.643-.81-3.188-.385-3.433.424-.245 1.117.56 1.54 1.79.574 1.675.932 1.241 1.423-1.728.36-2.181.133-4.932-.507-6.114-.64-1.181-.69-2.593-.113-3.136.577-.544.774-1.838.439-2.877-.336-1.04-.75-5.032-.922-8.874-.171-3.842-.937-7.028-1.702-7.079-.812-.054-.69-1.89.29-4.408.925-2.374 1.143-4.46.485-4.636-1.6-.429-2.355-12.662-.905-14.658.629-.866.574-4.248-.122-7.514-1.842-8.643-.35-11.853 1.79-3.85 2.26 8.454 3.641 31.062 2.066 33.829-.805 1.413-.553 2.021.78 1.882 1.084-.114 1.789.468 1.568 1.294-.222.826-.886.989-1.477.361-.591-.627-1.232-.556-1.423.159-.192.715.252 1.957.985 2.761 1.343 1.47 2.496 8.777 2.286 14.485-.062 1.692.345 3.198.904 3.348.781.21 2.301 11.903 1.794 13.797-.055.205-.877-.19-1.827-.88s-1.267-1.687-.705-2.217zm-4.352-48.645c.19-.708.016-2.307-.386-3.554-.402-1.246-.886-1.687-1.076-.978-.19.708-.016 2.307.386 3.554.402 1.246.886 1.687 1.076.978zm-8.816 35.609c.633-.596.536-1.247-.214-1.448-.75-.201-1.228-.873-1.062-1.493.644-2.4 6.837.68 7.525 3.742.682 3.04.649 3.042-1.284.114-1.716-2.598-2.158-2.77-3.254-1.261-.698.96-.806 2.237-.24 2.837.565.6.87 1.678.678 2.395-.192.717-1.013.155-1.824-1.25-.811-1.404-.957-3.04-.325-3.636zm-5.094.35c-1.055-2.472-.997-2.506.616-.356.98 1.304 1.722 2.59 1.65 2.857-.284 1.06-1.159.095-2.266-2.501zm8.656-6.012c-.929-.032-1.457-1.394-1.174-3.026.282-1.633 1.063-2.821 1.734-2.642.672.18.668-1.352-.01-3.404-.676-2.053-1.103-4.186-.95-4.74.15-.557.936.963 1.738 3.374.802 2.411.883 5.175.18 6.142-.75 1.033-.642 1.567.261 1.296.845-.254 1.824 1.253 2.174 3.349.55 3.284.437 3.527-.814 1.76-.8-1.127-2.212-2.076-3.14-2.109zm-10.5-3.871c-.132-1.264.222-1.724.831-1.077.585.62.916 1.674.738 2.34-.497 1.853-1.31 1.197-1.569-1.263zm5.227-4.28c-.137-1.303.415-2.752 1.226-3.22.877-.506 1.371.559 1.22 2.629-.282 3.867-2.057 4.295-2.446.59zm4.411-11.083c-.133-1.264.222-1.723.831-1.076.584.62.916 1.673.738 2.34-.497 1.852-1.31 1.197-1.569-1.264zm-1.284-16.925c.417-5.047 1.414-3.319 1.519 2.63.055 3.126-.228 4.069-.88 2.938-.53-.915-.817-3.42-.64-5.568zm-8.946-29.415c.58-.878 1.008-.138.996 1.726-.014 2.292-.316 2.75-1.015 1.538-.548-.949-.54-2.417.02-3.264zm8.963.9c-.788-3.369 2.113-6.117 3.075-2.914.36 1.202.119 1.396-.681.547-1.405-1.492-1.672-1.06-1.334 2.158.13 1.236 1.043 2.463 2.03 2.728.986.264 1.643 1.042 1.46 1.728-.537 2.002-3.802-1.046-4.55-4.247zm-26.95-9.286c-.387-3.692.953-3.203 2.282.831.988 3 .905 3.538-.4 2.59-.907-.658-1.753-2.197-1.882-3.42zm-3.22-2.629c.01-1.516.231-2.698.494-2.628.263.07.788 1.453 1.167 3.073.38 1.627.159 2.804-.495 2.628-.65-.174-1.176-1.557-1.166-3.073zm21.244-.519c-.597-1.299-.654-2.246-.126-2.104.528.141.463-.822-.143-2.14-.933-2.03-.76-2.178 1.124-.964 1.818 1.17 1.8.79-.095-2.065-1.276-1.924-1.933-3.394-1.458-3.267.474.127.638-.516.363-1.43-.348-1.158-.976-1.222-2.074-.21-1.24 1.14-1.456.986-1.013-.73.355-1.372 1.477-1.858 3.033-1.313 1.358.476 2.179 1.033 1.824 1.238-.355.205.318 1.963 1.497 3.908 2.146 3.54 1.237 8.124-1.467 7.399-.792-.212-.543.767.553 2.175 1.097 1.408 1.335 2.404.53 2.213-.804-.192-1.951-1.411-2.548-2.71zm5.324.736c.19-.708.89-1.141 1.557-.963.667.179 1.415 1 1.663 1.826.248.826-.453 1.26-1.557.963-1.104-.296-1.852-1.117-1.663-1.826zm-18.646-25.692c-.259-.86.876-1.017 2.678-.37 1.72.617 2.722 1.502 2.228 1.968-1.267 1.193-4.372.182-4.906-1.598zm-96.844 2.925c.63-2.077.01-4.787-1.696-7.357-2.14-3.228-2.37-3.37-1.117-.688.869 1.86 1.632 5.17 1.697 7.357l.116 3.975zm49.95-5.665c1.18-.158 2.657-1.393 3.281-2.744 1.604-3.472 2.33-3.64 4.71-1.09 2.47 2.648 3.394.933 1.18-2.19-1.366-1.93-1.255-2.317 1.05-3.684 1.418-.84 3.674-2.465 5.013-3.61 2.286-1.956 2.336-1.88.827 1.24-1.752 3.62.827 6.981 3.966 5.17 1.161-.671.91-1.472-.805-2.57-1.371-.877-1.991-2.066-1.378-2.644.696-.656 1.653-.289 2.55.978 1.182 1.67 1.397 1.556 1.215-.642-.121-1.469-.48-3.361-.798-4.205-.317-.845-.163-2.356.344-3.36a401.618 401.618 0 0 1 2.188-4.244c2.095-4.002-.682-6.71-6.022-5.875-2.828.443-7.552-3.513-5.972-5 1.592-1.5 7.292.39 13.117 4.348 2.811 1.91 5.569 3.21 6.128 2.886.56-.324 2.3-5.374 3.867-11.224 1.64-6.12 3.686-11.236 4.819-12.05 1.083-.779 3.225-3.564 4.76-6.19 1.534-2.626 4.916-6.907 7.516-9.515 5.625-5.644 5.612-5.614 2.735-6.329-3.417-.85-6.933 1.034-11.1 5.946-2.067 2.435-5.462 4.86-7.545 5.39-3.459.876-4.606.363-13.211-5.91-6.083-4.433-11.722-7.484-15.905-8.605l-6.481-1.737-1.428 4.794-1.427 4.794.011-5.173.011-5.173-27.478-7.363c-15.526-4.16-28.825-8.335-30.575-9.598-2.03-1.464-48.132-14.29-133.72-37.199C97.085 53.8 81.707 49.44 81.51 47.548c-.257-2.448-3.195-3.657-4.412-1.815-.447.677-3.81.868-7.476.426l-6.663-.805-3.333 10.963L56.29 67.28l10.45 3.69c5.748 2.03 31.022 9.21 56.166 15.957 37.954 10.184 46.254 12.76 48.879 15.168 1.739 1.597 3.683 2.746 4.32 2.555.636-.191.907 2.059.603 5-.503 4.851-.197 5.444 3.294 6.38 3.716.995 3.903.826 5.438-4.903 1.394-5.2 1.833-5.726 3.556-4.256 1.082.922 16.548 5.793 34.37 10.823l32.404 9.147-1.133 4.228c-.713 2.66-.372 5.406.918 7.406 1.804 2.798 4.559 3.907 22.93 9.236 24.301 7.048 24.121 6.891 25.384 22.13.655 7.912 1.384 9.722 5.654 14.049 4.068 4.121 6.025 5.151 11.493 6.05 12.265 2.016 41.99 11.07 40.617 12.372-.468.444.787 1.203 2.79 1.686 3.204.773 3.368.663 1.363-.918-2.256-1.78-2.252-1.791.386-1.18 1.465.34 3.126 1.416 3.69 2.392.737 1.278 1.372 1.448 2.265.607.682-.642 2.829-.743 4.77-.222 1.942.52 4.412.437 5.49-.186 1.524-.88 1.83-.645 1.373 1.058-.323 1.205.265 2.418 1.305 2.697 1.24.332 1.805-.313 1.642-1.87-.18-1.717.326-1.38 1.82 1.21 1.662 2.876 2.648 3.451 4.983 2.906 2.29-.535 2.803-.274 2.402 1.22-.28 1.046 0 2.437.613 3.093 1.387 1.473 5.821-.404 5.272-2.232-.22-.733.214-1.167.964-.966.75.2 1.14 1.2.867 2.221-.64 2.385.571 3.567 3.282 3.204zm-1.843-3.427c.19-.708.6-1.22.913-1.135.312.083.77.827 1.019 1.653.248.826-.163 1.337-.913 1.136-.75-.201-1.21-.945-1.02-1.654zm-82.312-43.116 2.849-10.634 5.672 2.014 5.672 2.014-2.413 9.005-2.413 9.006 18.524 4.28c10.188 2.353 16.133 3.927 13.211 3.496-7.184-1.058-31.602-5.672-38.43-7.261l-5.522-1.285zm62.163 24.296c4.223.588 4.365.452 6.028-5.756.937-3.497 2.284-6.203 2.992-6.013 1.419.38-1.394 12.417-3.137 13.423-.598.346-3.14-.02-5.648-.814l-4.56-1.442zm-13.55-3.581c1.317.008 3.639.617 5.158 1.354 1.52.738.441.731-2.396-.014-2.837-.744-4.08-1.348-2.763-1.34zm37.117.973c.687-.918.91-.53.57.986-.308 1.373-.816 2.052-1.13 1.51-.313-.543-.06-1.666.56-2.496zm-1.673-5.117c-.952.286-1.438-.36-1.13-1.506.384-1.436-.746-2.352-3.97-3.216-3.56-.953-4.371-1.72-3.857-3.637.462-1.723 1.836-2.292 4.726-1.955 2.24.262 4.243 1.038 4.45 1.726.206.688.955 1.406 1.663 1.596.709.19 1.085-.33.837-1.156-.248-.826.453-1.259 1.557-.963 1.105.296 2.164-.042 2.353-.75.19-.708-2.842-2.142-6.738-3.186l-7.083-1.898 3.839-14.328 3.839-14.328 3.809 1.884c2.095 1.035 5.185 2.252 6.868 2.703 2.96.793 2.972 1.162.36 11.484-2.87 11.351-2.505 11.32 1.97-.162 1.54-3.953 3.244-7.068 3.788-6.922 2.178.583 2.09 8.11-.196 16.64-2.322 8.666-2.588 9.06-6.859 10.176-3.76.983-4.66 1.951-5.851 6.305-.94 3.435-1.624 4.454-2.057 3.068-.357-1.142-1.4-1.85-2.318-1.575zm25.606-6.104c.604-.57-.542-1.963-2.546-3.098-2.004-1.135-3.525-2.498-3.379-3.028.142-.532.502-1.833.786-2.896.285-1.062 1.369-1.703 2.41-1.425 1.17.314 1.4 1.183.604 2.279-1.094 1.506-.738 1.68 2.385 1.157 2.405-.402 3.636-1.398 3.569-2.885-.09-1.965.015-1.96.769.033.964 2.546-.593 9.896-2.305 10.885-1.678.969-3.527.144-2.29-1.021zm-56.313-20.422c2.036-.611 3.493-6.207 1.738-6.677-.633-.17-1.062.543-.952 1.585.109 1.042-.629 1.672-1.64 1.401-1.011-.27-1.817-1.809-1.792-3.418.056-3.52-3.853-8.393-4.574-5.701-.291 1.088-2.431 1.265-6 .498-3.05-.657-4.751-1.46-3.78-1.787 1.328-.447 1.505-1.27.713-3.315-1.002-2.587-1.118-2.61-2.33-.48-1.813 3.182-6.923 2.93-6.904-.34.01-1.744.961-2.586 3.01-2.666 1.648-.064 4.796-.776 6.995-1.583 3.144-1.153 4.8-.985 7.752.79 2.319 1.393 3.592 1.718 3.332.85-.232-.772.441-1.173 1.496-.89 1.055.282 1.764 1.83 1.575 3.44-.327 2.793-.211 2.851 2.518 1.267 1.573-.914 2.742-1.183 2.597-.598-.146.585.53.345 1.502-.534 1.376-1.245 1.561-.814.837 1.95-1.318 5.03 1.387 5.107 2.884.082l1.238-4.154.13 4.866c.072 2.677.588 4.212 1.147 3.413.559-.8 2.644-1.017 4.635-.483 4.237 1.135 6.923-1.598 4.235-4.309-2.41-2.43-.89-2.068 2.951.704 2.87 2.07 2.894 2.581.494 10.082l-2.528 7.9-6.975-2.276c-3.836-1.252-7.223-3.065-7.526-4.029-.514-1.633-1.925 1.02-2.489 4.682-.117.756-1.532 1.126-3.145.821-1.732-.326-2.2-.773-1.144-1.09zm18.043-9.21c.19-.709-.27-1.453-1.02-1.654-.75-.2-1.16.31-.912 1.136.248.826.706 1.57 1.019 1.653.312.084.723-.427.913-1.135zm8.375 1.235c.662-1.166.76-.375.216 1.757-.543 2.132-1.085 3.086-1.204 2.12-.12-.967.325-2.712.988-3.877zm-172.057-43.71c-52.445-14.056-55.733-15.082-54.755-17.09.978-2.007 5.76-.873 78.617 18.65l77.575 20.785-.83 3.1-.831 3.101-21.99-6.795c-12.096-3.738-47.1-13.525-77.786-21.75zm116.202 29.062c.285-1.062.745-1.87 1.024-1.796.278.075.606 1.095.73 2.266.123 1.172-.338 1.98-1.024 1.796-.686-.183-1.015-1.203-.73-2.266zm84.24 15.315c.059-.221 1.068.498 2.242 1.598 3.806 3.568 8.72 3.951 13.714 1.069 2.625-1.516 5.045-3.77 5.377-5.008.633-2.362 5.377-6.02 7.18-5.538.579.155-1.102 2.593-3.736 5.417-2.633 2.824-5.084 6.241-5.447 7.594-.37 1.38-1.151 1.938-1.78 1.269-.618-.655-1.98-.797-3.028-.315-3.176 1.46-10.99-.47-12.884-3.183-.96-1.375-1.698-2.681-1.638-2.903zm-53.88-13.65c.686-.918.91-.53.569.986-.308 1.373-.816 2.052-1.13 1.51-.313-.543-.06-1.666.56-2.496zm-19.143-4.855c-.255-.85.32-.928 1.348-.181 2.002 1.454 2.162 2.486.31 1.99-.667-.179-1.413-.993-1.658-1.809zm25.148 74.765c-1.52-.737-3.84-1.347-5.158-1.354-1.318-.008-.075.595 2.762 1.34 2.838.745 3.916.751 2.396.014zm31.394 5.247c.19-.708-.269-1.452-1.019-1.653-.75-.201-1.16.31-.913 1.135.248.826.707 1.57 1.019 1.654.312.083.723-.428.913-1.136zm40.945.352c-1.165-.662-2.91-1.107-3.876-.987-.967.119-.013.66 2.12 1.204 2.131.543 2.922.446 1.756-.217zm-6.724-3.14c-.79-.594-2.239-.982-3.22-.862-.981.12-.335.606 1.436 1.08 1.77.475 2.574.377 1.784-.218zM40.727 353.561c-6.256 1.221-11.984 1.866-12.73 1.433-.745-.433-.052-5.898 1.54-12.145 1.59-6.247 4.318-18.884 6.06-28.081C46.2 258.79 47.26 254.325 52.233 244.68c2.747-5.326 7.928-12.794 11.513-16.597 5.914-6.272 7.72-7.355 19.447-11.659 7.11-2.609 15.096-5.346 17.746-6.081l4.818-1.338 4.699 17.537 4.699 17.537 2.69-1.553c1.479-.854 3.969-1.904 5.533-2.334 1.575-.433 4.438-3.575 6.42-7.048 3.85-6.746 7.602-9.664 19.156-14.9 24.482-11.093 30.362-13.643 37.719-16.353 15.058-5.547 20.614-8.025 21.915-9.777.711-.957 1.82-1.435 2.464-1.063.645.372.258 1.566-.858 2.653-1.117 1.087-2.87 3.431-3.897 5.21-1.124 1.946-2.952 3.239-4.593 3.248-1.5.01-5.228 1.53-8.285 3.38-3.056 1.848-8.357 4.504-11.779 5.901-3.421 1.397-7.75 3.273-9.617 4.17l-3.396 1.628 4.022 1.723c5.586 2.393 4.197 3.692-1.537 1.436-4.213-1.658-5.662-1.493-14.991 1.705-5.68 1.947-10.738 4.25-11.239 5.117-.5.868-.592 4.038-.204 7.045.546 4.223 1.9 6.836 5.946 11.48 6.925 7.946 7.321 10.094 1.247 6.758-4.572-2.51-9.98-9.744-13.298-17.784l-1.282-3.107-.982 3.714c-.54 2.043-.666 6.425-.281 9.738l.7 6.024-1.507-4.934c-1.362-4.462-1.763-4.785-4.196-3.38-1.48.854-3.722 1.838-4.984 2.186-1.747.483-1.008 1.268 3.099 3.297 2.965 1.464 7.327 4.334 9.693 6.376 2.384 2.057 4.974 3.231 5.81 2.633.829-.593 1.307-.41 1.061.408-.848 2.825 7.37 2.433 16.111-.769 8.864-3.246 16.514-8.242 17.464-11.406.3-1 1.285-2.044 2.188-2.32.902-.277 1.283-1.201.846-2.055-.438-.854-.129-1.352.686-1.107.815.244 1.52-1.607 1.568-4.114.083-4.377.129-4.42 1.14-1.09 1.452 4.777-4.384 14.573-11.194 18.787-2.911 1.802-9.604 4.43-14.871 5.842-11.132 2.983-15.17 2.07-23.936-5.41-11.344-9.678-23.125-7.22-31.908 6.656-2.263 3.575-4.52 6.265-5.017 5.978-.497-.286-.534.509-.083 1.767.465 1.299.042 2.333-.98 2.391-.99.057-1.29.585-.665 1.173.625.588.639 3.24.031 5.892-1.287 5.62-1.298 6.338-.26 17.02.756 7.788 5.194 22.535 8.65 28.74.919 1.652 2.502 5.048 3.517 7.546l1.846 4.541-29.368 7.802c-16.152 4.29-34.486 8.8-40.742 10.021zm-1.752-6.023c-.542-.314-1.666-.062-2.496.56-.917.686-.53.91.987.57 1.373-.309 2.052-.817 1.51-1.13zm5.457-2.923c-.98-.12-2.43.268-3.22.863-.789.594.014.692 1.785.218 1.77-.475 2.417-.961 1.435-1.081zm7.124-5.28c-.562-.53.171-1.282 1.63-1.673 1.458-.39 2.837-.02 3.063.824.226.843.931.19 1.568-1.454.636-1.643.81-3.188.385-3.433-.424-.245-1.117.561-1.54 1.791-.574 1.675-.931 1.24-1.423-1.729-.36-2.181-.132-4.932.507-6.114.64-1.181.69-2.592.114-3.136-.577-.543-.775-1.838-.44-2.877.336-1.039.751-5.032.922-8.874.172-3.842.937-7.027 1.702-7.079.812-.054.691-1.89-.29-4.408-.925-2.373-1.143-4.46-.484-4.636 1.6-.428 2.355-12.662.904-14.658-.629-.866-.574-4.247.122-7.514 1.842-8.643.35-11.852-1.79-3.85-2.26 8.454-3.64 31.062-2.065 33.829.805 1.414.552 2.022-.78 1.882-1.084-.114-1.79.469-1.568 1.295.221.826.886.988 1.477.36.59-.627 1.231-.556 1.423.16.191.714-.252 1.957-.986 2.76-1.342 1.471-2.496 8.777-2.286 14.485.062 1.692-.345 3.198-.904 3.348-.78.21-2.3 11.903-1.793 13.797.055.206.877-.19 1.826-.88.95-.69 1.267-1.687.706-2.216zm4.352-48.644c-.19-.709-.017-2.308.385-3.555.402-1.246.886-1.687 1.076-.978.19.708.016 2.308-.385 3.554-.402 1.247-.887 1.687-1.076.979zm8.815 35.608c-.632-.595-.536-1.247.214-1.448.75-.201 1.228-.873 1.062-1.493-.643-2.4-6.836.68-7.524 3.742-.683 3.04-.65 3.043 1.284.114 1.715-2.598 2.158-2.77 3.253-1.261.698.96.806 2.237.241 2.837-.565.6-.87 1.678-.678 2.395.192.718 1.013.155 1.823-1.25.811-1.404.957-3.04.325-3.636zm5.095.35c1.054-2.472.996-2.505-.617-.356-.98 1.304-1.722 2.59-1.65 2.858.284 1.06 1.159.094 2.267-2.502zm-8.656-6.011c.928-.033 1.456-1.395 1.174-3.027-.283-1.633-1.063-2.821-1.735-2.641-.671.18-.667-1.352.009-3.405.676-2.052 1.103-4.186.95-4.74-.154-.556-.936.963-1.738 3.374-.802 2.412-.883 5.175-.181 6.142.75 1.033.643 1.567-.26 1.296-.845-.254-1.824 1.253-2.174 3.35-.55 3.283-.437 3.526.815 1.76.798-1.128 2.211-2.077 3.14-2.11zm10.5-3.872c.132-1.264-.223-1.723-.832-1.076-.584.62-.916 1.673-.737 2.34.496 1.852 1.31 1.196 1.568-1.264zm-5.228-4.28c.137-1.303-.415-2.751-1.225-3.22-.878-.506-1.372.559-1.22 2.629.282 3.867 2.056 4.296 2.445.59zm-4.41-11.083c.132-1.264-.222-1.723-.832-1.076-.584.62-.916 1.674-.737 2.34.496 1.853 1.31 1.197 1.568-1.264zm1.284-16.925c-.417-5.047-1.415-3.318-1.52 2.63-.054 3.126.229 4.069.881 2.939.529-.916.816-3.422.639-5.569zm8.945-29.414c-.58-.879-1.007-.138-.996 1.725.014 2.292.316 2.75 1.016 1.539.548-.95.539-2.418-.02-3.264zm-8.962.899c.787-3.368-2.113-6.116-3.075-2.914-.361 1.202-.12 1.396.68.547 1.405-1.492 1.673-1.06 1.335 2.159-.13 1.235-1.043 2.462-2.03 2.727-.987.264-1.644 1.042-1.46 1.728.537 2.002 3.802-1.045 4.55-4.247zm26.95-9.285c.387-3.692-.953-3.204-2.282.83-.989 3-.905 3.539.4 2.59.906-.658 1.753-2.197 1.881-3.42zm3.22-2.63c-.01-1.516-.232-2.698-.495-2.628-.263.07-.788 1.454-1.166 3.074-.38 1.627-.16 2.803.494 2.628.651-.175 1.176-1.558 1.167-3.074zm-21.245-.519c.597-1.299.654-2.246.127-2.104-.528.141-.464-.822.142-2.14.933-2.03.76-2.178-1.124-.964-1.817 1.17-1.8.79.095-2.064 1.276-1.925 1.933-3.395 1.458-3.268-.474.128-.638-.516-.363-1.43.348-1.158.976-1.222 2.074-.21 1.24 1.141 1.456.986 1.013-.729-.355-1.373-1.476-1.859-3.032-1.314-1.359.476-2.18 1.033-1.824 1.238.355.205-.319 1.964-1.497 3.908-2.147 3.541-1.238 8.124 1.466 7.4.792-.213.543.766-.553 2.174-1.097 1.409-1.335 2.404-.53 2.213.804-.192 1.951-1.411 2.548-2.71zm-5.324.737c-.19-.709-.89-1.142-1.557-.964-.666.18-1.415 1-1.663 1.826-.248.826.453 1.26 1.557.964 1.105-.296 1.853-1.118 1.663-1.826zm18.647-25.693c.258-.86-.877-1.016-2.679-.37-1.72.617-2.722 1.503-2.228 1.968 1.267 1.193 4.372.182 4.907-1.598zm96.844 2.925c-.632-2.076-.006-4.787 1.696-7.357 2.139-3.228 2.37-3.37 1.116-.688-.869 1.86-1.632 5.17-1.696 7.357l-.117 3.975-1-3.287zm-49.95-5.665c-1.18-.158-2.658-1.392-3.282-2.743-1.603-3.472-2.33-3.64-4.71-1.09-2.47 2.647-3.393.933-1.18-2.192 1.366-1.929 1.256-2.316-1.05-3.683-1.418-.84-3.674-2.465-5.013-3.61-2.286-1.955-2.336-1.88-.827 1.24 1.752 3.62-.827 6.982-3.966 5.17-1.161-.671-.91-1.472.805-2.57 1.371-.876 1.991-2.066 1.378-2.643-.696-.656-1.652-.29-2.55.978-1.182 1.67-1.397 1.556-1.215-.643.121-1.468.48-3.36.798-4.205.317-.844.163-2.356-.344-3.359a400.326 400.326 0 0 0-2.188-4.245c-2.095-4.001.682-6.71 6.022-5.874 2.828.442 7.552-3.514 5.972-5.001-1.592-1.5-7.292.39-13.117 4.348-2.811 1.91-5.569 3.21-6.128 2.886-.56-.323-2.3-5.374-3.867-11.224-1.64-6.119-3.686-11.236-4.819-12.05-1.083-.779-3.225-3.564-4.76-6.19-1.534-2.625-4.916-6.907-7.515-9.515-5.626-5.643-5.613-5.614-2.736-6.329 3.417-.85 6.933 1.034 11.1 5.946 2.067 2.436 5.462 4.861 7.545 5.39 3.459.877 4.606.364 13.212-5.909 6.082-4.434 11.721-7.485 15.904-8.606l6.481-1.736 1.428 4.794 1.427 4.794-.012-5.174-.01-5.173 27.477-7.363c15.526-4.16 28.825-8.335 30.575-9.598 2.03-1.464 48.132-14.289 133.72-37.198C442.26 52.6 457.637 48.24 457.835 46.35c.257-2.449 3.195-3.658 4.412-1.816.447.677 3.81.869 7.476.426l6.663-.805 3.333 10.963 3.334 10.963-10.45 3.69c-5.748 2.03-31.022 9.21-56.166 15.957-37.954 10.184-46.254 12.76-48.879 15.169-1.739 1.596-3.683 2.745-4.32 2.554-.636-.191-.907 2.06-.603 5 .503 4.852.197 5.444-3.294 6.38-3.716.995-3.903.826-5.438-4.903-1.394-5.2-1.833-5.726-3.556-4.256-1.082.923-16.548 5.793-34.37 10.824l-32.404 9.146 1.133 4.228c.713 2.66.372 5.406-.918 7.407-1.804 2.797-4.559 3.906-22.931 9.235-24.3 7.049-24.12 6.892-25.383 22.13-.655 7.913-1.384 9.722-5.654 14.05-4.068 4.12-6.025 5.15-11.493 6.05-12.265 2.015-41.99 11.07-40.617 12.371.468.444-.787 1.203-2.79 1.686-3.204.774-3.368.663-1.363-.918 2.256-1.779 2.252-1.79-.386-1.18-1.465.34-3.125 1.416-3.689 2.392-.738 1.279-1.372 1.449-2.265.607-.683-.642-2.83-.742-4.771-.222-1.942.52-4.412.437-5.49-.185-1.524-.88-1.829-.645-1.373 1.058.323 1.204-.264 2.417-1.304 2.696-1.24.332-1.806-.313-1.642-1.87.18-1.717-.326-1.38-1.822 1.21-1.66 2.877-2.647 3.452-4.982 2.906-2.289-.535-2.803-.274-2.402 1.22.28 1.046.005 2.438-.612 3.093-1.388 1.473-5.822-.404-5.273-2.232.22-.732-.213-1.167-.964-.966-.75.201-1.14 1.2-.866 2.221.639 2.385-.572 3.567-3.283 3.204zm1.843-3.426c-.19-.709-.6-1.22-.913-1.136-.313.084-.771.828-1.02 1.653-.247.826.164 1.337.914 1.136.75-.201 1.209-.945 1.019-1.653zm82.312-43.116-2.85-10.635-5.672 2.014-5.672 2.014 2.413 9.005 2.413 9.006-18.523 4.28c-10.188 2.353-16.133 3.927-13.212 3.496 7.184-1.058 31.603-5.672 38.43-7.26l5.522-1.286zm-62.164 24.295c-4.222.588-4.365.452-6.028-5.756-.937-3.497-2.283-6.203-2.992-6.013-1.418.38 1.394 12.417 3.137 13.424.599.345 3.14-.021 5.649-.815l4.56-1.442zm13.551-3.58c-1.318.007-3.64.616-5.159 1.354-1.52.737-.441.73 2.396-.014 2.837-.745 4.08-1.348 2.763-1.34zm-37.118.972c-.686-.917-.91-.53-.57.986.308 1.373.817 2.052 1.13 1.51.313-.543.061-1.666-.56-2.496zm1.673-5.116c.952.286 1.438-.362 1.131-1.507-.385-1.436.746-2.352 3.97-3.216 3.559-.953 4.37-1.719 3.856-3.637-.461-1.723-1.836-2.291-4.725-1.955-2.241.262-4.244 1.038-4.45 1.726-.207.688-.956 1.407-1.664 1.596-.708.19-1.085-.33-.837-1.156.248-.825-.453-1.259-1.557-.963-1.104.296-2.163-.041-2.353-.75-.19-.708 2.843-2.142 6.738-3.186l7.084-1.898-3.84-14.328-3.838-14.327-3.81 1.883c-2.094 1.036-5.185 2.252-6.867 2.703-2.96.793-2.972 1.162-.361 11.485 2.87 11.35 2.505 11.32-1.969-.163-1.54-3.953-3.245-7.068-3.788-6.922-2.179.584-2.09 8.11.195 16.641 2.322 8.665 2.588 9.06 6.86 10.176 3.76.982 4.659 1.95 5.85 6.305.94 3.434 1.625 4.454 2.058 3.068.356-1.142 1.4-1.851 2.317-1.575zm-25.605-6.105c-.604-.569.541-1.963 2.545-3.098 2.004-1.135 3.525-2.498 3.38-3.028-.147-.53-.5-1.834-.784-2.896-.285-1.063-1.369-1.704-2.409-1.425-1.17.313-1.4 1.182-.605 2.278 1.095 1.507.738 1.68-2.384 1.158-2.405-.403-3.636-1.398-3.57-2.886.09-1.965-.014-1.96-.769.033-.963 2.546.593 9.897 2.306 10.885 1.677.969 3.526.144 2.289-1.021zm56.312-20.421c-2.035-.612-3.492-6.208-1.738-6.678.633-.17 1.062.544.953 1.585-.11 1.042.628 1.672 1.64 1.402 1.01-.271 1.817-1.81 1.791-3.419-.056-3.52 3.853-8.393 4.574-5.7.292 1.087 2.432 1.265 6 .497 3.05-.656 4.752-1.46 3.78-1.787-1.328-.446-1.505-1.27-.713-3.315 1.002-2.587 1.118-2.61 2.331-.48 1.812 3.183 6.923 2.93 6.903-.34-.01-1.744-.96-2.585-3.01-2.665-1.648-.065-4.795-.777-6.994-1.584-3.145-1.153-4.8-.984-7.752.79-2.32 1.393-3.593 1.718-3.332.85.232-.772-.442-1.173-1.497-.89-1.055.283-1.764 1.831-1.575 3.441.327 2.792.211 2.85-2.517 1.266-1.574-.913-2.742-1.182-2.597-.598.145.585-.531.345-1.503-.534-1.376-1.244-1.56-.814-.837 1.95 1.318 5.03-1.387 5.108-2.884.083l-1.237-4.155-.13 4.866c-.073 2.677-.589 4.213-1.147 3.413-.56-.799-2.645-1.016-4.635-.483-4.237 1.135-6.924-1.597-4.236-4.308 2.41-2.431.89-2.069-2.95.703-2.87 2.07-2.895 2.581-.495 10.082l2.528 7.901 6.975-2.276c3.837-1.252 7.224-3.066 7.527-4.03.514-1.633 1.924 1.021 2.488 4.682.117.757 1.532 1.126 3.145.822 1.732-.327 2.2-.774 1.144-1.091zm-18.042-9.211c-.19-.708.268-1.452 1.019-1.653.75-.201 1.16.31.913 1.135-.248.826-.707 1.57-1.02 1.654-.312.083-.722-.428-.912-1.136zm-8.375 1.235c-.663-1.165-.76-.375-.217 1.757.543 2.132 1.085 3.086 1.204 2.12.12-.967-.325-2.711-.987-3.877zm172.057-43.709c52.445-14.057 55.732-15.083 54.754-17.091-.977-2.007-5.76-.872-78.616 18.65l-77.575 20.786.83 3.1.83 3.1 21.991-6.795c12.095-3.737 47.099-13.525 77.786-21.75zm-116.202 29.062c-.285-1.063-.746-1.871-1.024-1.797-.279.075-.607 1.095-.73 2.267-.123 1.171.338 1.98 1.024 1.796.686-.184 1.014-1.204.73-2.266zm-84.24 15.314c-.06-.221-1.069.498-2.242 1.598-3.806 3.569-8.721 3.952-13.715 1.069-2.625-1.516-5.044-3.77-5.376-5.007-.633-2.363-5.377-6.022-7.18-5.538-.58.155 1.102 2.592 3.735 5.416 2.633 2.824 5.085 6.241 5.447 7.594.37 1.381 1.151 1.938 1.781 1.27.617-.656 1.98-.798 3.027-.316 3.176 1.46 10.99-.47 12.885-3.182.96-1.375 1.697-2.682 1.638-2.904zm53.88-13.65c-.686-.917-.91-.53-.57.987.308 1.372.816 2.051 1.13 1.509.313-.543.061-1.666-.56-2.496zm19.142-4.855c.256-.85-.319-.928-1.347-.181-2.002 1.454-2.163 2.487-.31 1.99.666-.178 1.412-.992 1.657-1.809zm-25.148 74.765c1.52-.737 3.841-1.347 5.159-1.354 1.317-.008.074.596-2.763 1.34-2.837.745-3.915.752-2.396.014zm-31.394 5.247c-.19-.708.269-1.452 1.02-1.653.75-.201 1.16.31.912 1.136-.248.825-.706 1.57-1.019 1.653-.312.084-.723-.427-.913-1.136zm-40.945.352c1.166-.662 2.91-1.106 3.877-.987.966.12.012.661-2.12 1.204-2.132.543-2.923.446-1.757-.216zm6.724-3.14c.79-.594 2.239-.982 3.22-.862.981.12.335.606-1.436 1.08-1.77.475-2.573.377-1.784-.217z"/></svg>