<svg xmlns="http://www.w3.org/2000/svg" width="" height="" viewBox="0 0 533.333 402.667"><path style="fill:#000;stroke-width:1.33333325" d="M24.946 298.946c-6.36-.44-12.06-1.299-12.667-1.91-.608-.61 1.476-5.71 4.63-11.333 3.154-5.622 9.06-17.123 13.123-25.556 24.728-51.325 26.908-55.365 34.209-63.394 4.031-4.433 10.968-10.306 15.416-13.052 7.336-4.527 9.36-5.106 21.802-6.228 7.543-.68 15.965-1.256 18.715-1.281l5-.045v36.311l3-.804c1.65-.442 4.327-.812 5.948-.822 1.634-.01 5.212-2.304 8.026-5.147 5.464-5.519 9.844-7.367 22.36-9.433 26.519-4.38 32.858-5.32 40.666-6.034 15.98-1.46 21.989-2.417 23.699-3.772.934-.74 2.13-.915 2.655-.389.527.526-.156 1.58-1.516 2.34-1.36.762-3.66 2.572-5.112 4.024-1.589 1.589-3.69 2.365-5.278 1.95-1.45-.38-5.445.124-8.876 1.119-3.431.995-9.239 2.188-12.905 2.652-3.667.464-8.333 1.156-10.37 1.538l-3.701.694 3.439 2.705c4.776 3.758 3.098 4.653-1.856.99-3.64-2.692-5.083-2.908-14.922-2.233-5.99.41-11.472 1.326-12.18 2.034-.708.708-1.617 3.746-2.02 6.752-.566 4.22.064 7.095 2.771 12.627 4.633 9.468 4.46 11.645-.544 6.851-3.766-3.608-7.119-11.995-8.242-20.62l-.434-3.333-1.91 3.333c-1.05 1.834-2.306 6.034-2.792 9.334l-.883 6-.178-5.156c-.161-4.663-.465-5.078-3.178-4.351-1.65.442-4.071.812-5.38.822-1.813.014-1.303.964 2.14 3.986 2.485 2.182 5.956 6.083 7.712 8.667 1.77 2.604 3.968 4.41 4.93 4.048.955-.359 1.369-.058.92.668-1.55 2.51 6.49 4.258 15.761 3.428 9.402-.842 18.085-3.688 19.821-6.497.55-.888 1.77-1.642 2.714-1.676.943-.033 1.55-.828 1.349-1.766-.202-.937.225-1.339.95-.891.723.447 1.884-1.159 2.579-3.568 1.213-4.206 1.268-4.237 1.383-.759.166 4.992-8.007 12.943-15.675 15.25-3.279.987-10.424 1.795-15.877 1.795-11.524 0-15.189-1.927-21.72-11.42-8.453-12.285-20.468-12.96-32.543-1.83-3.111 2.867-5.988 4.882-6.394 4.476-.405-.406-.647.353-.537 1.685.113 1.375-.564 2.264-1.566 2.056-.971-.202-1.397.23-.945.96.45.73-.222 3.295-1.495 5.7-2.698 5.096-2.894 5.786-4.657 16.373-1.285 7.718-.815 23.11.916 30 .46 1.833 1.111 5.522 1.445 8.198l.608 4.865-30.386-.066c-16.713-.036-35.59-.425-41.948-.865zm-.133-6.271c-.443-.443-1.593-.49-2.556-.105-1.063.425-.747.741.806.805 1.405.058 2.193-.257 1.75-.7zm6.028-1.41c-.917-.37-2.417-.37-3.334 0-.916.369-.166.672 1.667.672s2.583-.303 1.667-.673zm8.247-3.258c-.406-.656.497-1.193 2.007-1.193 1.51 0 2.746.714 2.746 1.588 0 .873.85.424 1.89-.998s1.608-2.87 1.261-3.216c-.346-.347-1.224.252-1.95 1.331-.989 1.469-1.222.957-.928-2.039.216-2.2 1.149-4.798 2.072-5.774.924-.976 1.338-2.326.921-3-.416-.674-.272-1.976.321-2.892.593-.917 2.028-4.667 3.187-8.334 1.16-3.666 2.724-6.545 3.476-6.396.799.157 1.157-1.647.86-4.334-.278-2.532.051-4.603.733-4.603 1.656 0 5.552-11.62 4.668-13.925-.384-.999.544-4.25 2.062-7.226 4.016-7.871 3.406-11.358-.732-4.182-4.372 7.581-11.557 29.062-10.751 32.142.411 1.574.01 2.096-1.241 1.615-1.017-.39-1.85-.01-1.85.845 0 .856.6 1.184 1.334.731.733-.453 1.333-.218 1.333.522s-.75 1.825-1.666 2.412c-1.678 1.073-4.683 7.832-5.958 13.4-.378 1.65-1.16 3-1.74 3-.808 0-5.302 10.901-5.302 12.862 0 .213.896.043 1.992-.377s1.66-1.302 1.255-1.959zm16.793-45.86c0-.733.582-2.233 1.293-3.333.71-1.1 1.292-1.4 1.292-.667 0 .733-.581 2.233-1.292 3.333-.711 1.1-1.293 1.4-1.293.667zm-.7 36.677c-.457-.739-.196-1.344.58-1.344.777 0 1.413-.525 1.413-1.166 0-2.485-6.78-1.114-8.236 1.666-1.447 2.76-1.415 2.771 1.21.443 2.33-2.066 2.802-2.117 3.47-.376.425 1.108.199 2.37-.502 2.803-.702.433-1.275 1.395-1.275 2.138 0 .742.938.411 2.085-.735 1.146-1.147 1.71-2.69 1.254-3.429zm4.83 1.656c1.658-2.114 1.611-2.161-.504-.503-1.283 1.007-2.333 2.057-2.333 2.333 0 1.098 1.095.391 2.837-1.83zm-6.805-8.046c.905.209 1.768-.97 1.917-2.62.15-1.65-.297-3-.992-3-.695 0-.295-1.48.89-3.287 1.184-1.807 2.149-3.757 2.144-4.333-.005-.576-1.153.689-2.552 2.81-1.398 2.122-2.192 4.77-1.764 5.886.457 1.192.215 1.68-.587 1.184-.75-.464-2.086.739-2.967 2.673-1.38 3.03-1.334 3.294.332 1.911 1.063-.882 2.673-1.433 3.579-1.224zm11.143-1.023c.456-1.186.232-1.722-.524-1.254-.725.448-1.318 1.379-1.318 2.069 0 1.918.956 1.495 1.842-.815zm-3.94-5.487c.468-1.222.31-2.764-.351-3.427-.717-.716-1.47.185-1.86 2.223-.727 3.809.876 4.682 2.21 1.204zm-1.393-11.846c.455-1.187.232-1.722-.524-1.255-.725.448-1.318 1.38-1.318 2.07 0 1.917.956 1.495 1.842-.815zm5.621-16.016c.904-4.983-.507-3.572-2.148 2.147-.861 3.005-.833 3.989.09 3.066.748-.747 1.674-3.093 2.058-5.213zm16.254-26.097c-.333-.999-.937-.394-1.409 1.409-.58 2.217-.406 2.738.583 1.749.775-.775 1.147-2.196.826-3.158zM72 210.514c1.632-3.05-.458-6.455-2.216-3.61-.66 1.067-.476 1.317.516.704 1.743-1.077 1.89-.59.73 2.43-.445 1.16-1.645 2.11-2.666 2.11-1.022 0-1.858.58-1.858 1.29 0 2.073 3.943-.025 5.494-2.924zm28.435-1.994c1.33-3.466-.091-3.341-2.42.212-1.73 2.642-1.79 3.183-.283 2.605 1.046-.401 2.262-1.669 2.703-2.817zm3.79-1.706c.384-1.467.476-2.667.203-2.667-.272 0-1.137 1.2-1.922 2.667-.788 1.473-.879 2.666-.202 2.666.673 0 1.538-1.2 1.922-2.666zm-20.385-6c.912-1.1 1.212-2 .666-2-.546 0-.235-.914.692-2.03 1.427-1.72 1.298-1.907-.837-1.222-2.058.66-1.943.298.626-1.97 1.732-1.528 2.746-2.778 2.255-2.778-.491 0-.483-.664.019-1.476.636-1.029 1.26-.928 2.058.333.902 1.424 1.15 1.33 1.167-.441.013-1.418-.945-2.178-2.59-2.054-1.434.108-2.371.434-2.081.724.29.29-.816 1.814-2.458 3.387-2.99 2.865-3.298 7.527-.498 7.527.82 0 .326.88-1.098 1.957-1.423 1.077-1.912 1.977-1.085 2 .827.024 2.25-.857 3.164-1.957zm-5.334-.667c0-.733-.564-1.333-1.254-1.333-.69 0-1.626.6-2.08 1.333-.452.733.112 1.333 1.256 1.333 1.143 0 2.078-.6 2.078-1.333zm24.661-19.991c.472-.764-.583-1.208-2.491-1.05-1.821.15-3.019.746-2.662 1.324.915 1.48 4.176 1.307 5.153-.274zm92.787 27.89c-.072-2.168 1.233-4.625 3.543-6.666 2.901-2.565 3.16-2.643 1.256-.376-1.32 1.571-2.915 4.571-3.543 6.667l-1.141 3.81-.115-3.435zm-46.781-18.4c-1.1-.457-2.207-2.032-2.46-3.499-.65-3.768-1.309-4.119-4.267-2.271-3.071 1.917-3.52.022-.574-2.423 1.82-1.51 1.813-1.912-.061-3.83-1.152-1.178-2.91-3.331-3.907-4.784-1.702-2.48-1.77-2.42-1.12.984.756 3.95-2.606 6.53-5.168 3.967-.949-.948-.499-1.657 1.442-2.273 1.551-.492 2.458-1.481 2.016-2.197-.503-.814-1.522-.707-2.717.284-1.574 1.307-1.752 1.142-1.008-.935.498-1.387 1.334-3.122 1.86-3.855.525-.734.767-2.234.537-3.334-.23-1.1-.686-3.2-1.015-4.666-.988-4.407 2.396-6.305 7.338-4.116 2.616 1.16 8.203-1.439 7.063-3.284-1.15-1.861-7.145-1.511-13.796.805-3.21 1.118-6.21 1.658-6.667 1.201-.456-.457-.83-5.786-.83-11.842 0-6.335-.652-11.807-1.536-12.887-.845-1.033-2.193-4.277-2.995-7.21-.803-2.934-2.961-7.945-4.797-11.137-3.973-6.907-3.969-6.875-1.005-6.821 3.521.064 6.43 2.793 9.184 8.616 1.365 2.888 4.017 6.109 5.893 7.159 3.113 1.742 4.354 1.543 14.29-2.288 7.023-2.709 13.26-4.196 17.59-4.196h6.71l.138 5 .138 5 1.328-5 1.327-5h28.448c16.073 0 30-.59 32.017-1.358 2.34-.889 50.19-1.345 138.791-1.321 119.33.03 135.312-.201 135.993-1.976.882-2.299 4.033-2.707 4.73-.613.257.77 3.457 1.826 7.112 2.347l6.645.947.382 11.452.382 11.452-11.049.86c-6.077.473-32.349.868-58.382.877-39.296.013-47.98.353-51.139 2-2.093 1.092-4.268 1.7-4.833 1.35-.566-.35-1.41 1.754-1.877 4.674-.77 4.816-1.22 5.309-4.834 5.309-3.846 0-3.984-.212-3.984-6.143 0-5.384-.288-6.005-2.333-5.031-1.283.61-17.483 1.312-36 1.559l-33.667.448v4.377c0 2.754-1.04 5.318-2.804 6.916-2.466 2.235-5.414 2.594-24.54 2.986-25.296.52-25.082.414-30.245 14.806-2.681 7.474-3.853 9.033-9.098 12.108-4.996 2.928-7.152 3.416-12.667 2.87-12.369-1.228-43.425-.176-42.435 1.437.337.55-1.072.958-3.132.906-3.294-.082-3.424-.231-1.079-1.24 2.64-1.134 2.64-1.146-.066-1.239-1.504-.051-3.386.559-4.183 1.356-1.044 1.044-1.7 1.044-2.346 0-.492-.797-2.54-1.45-4.55-1.45s-4.375-.72-5.255-1.6c-1.244-1.244-1.6-1.096-1.6.667 0 1.247-.881 2.267-1.958 2.267-1.283 0-1.663-.77-1.102-2.232.619-1.611.042-1.417-2.072.698-2.35 2.349-3.45 2.65-5.565 1.517-2.073-1.109-2.636-.99-2.636.558 0 1.082-.626 2.355-1.392 2.828-1.721 1.064-5.518-1.896-4.515-3.52.402-.65.096-1.183-.681-1.183s-1.412.865-1.412 1.922c0 2.469-1.475 3.297-4 2.245zm2.667-2.832c0-.734-.265-1.334-.588-1.334-.324 0-.96.6-1.412 1.334-.454.733-.19 1.333.588 1.333.776 0 1.412-.6 1.412-1.333zm90.666-20.343v-11.01l-6 .477-6 .478v18.646l-19-.66c-10.45-.364-16.6-.382-13.666-.042 7.213.837 31.993 2.7 39 2.933l5.666.187zm-66.333 7.378c-4.231-.525-4.333-.693-4.333-7.12 0-3.62-.6-6.582-1.334-6.582-1.469 0-1.867 12.355-.444 13.778.489.489 3.039.793 5.666.675l4.778-.213zm14.015.049c-1.274-.334-3.674-.346-5.333-.027-1.658.319-.615.592 2.318.607 2.933.014 4.29-.247 3.015-.58zm-36.104-8.668c-.426-1.063-.742-.747-.806.806-.058 1.406.257 2.193.7 1.75.443-.443.49-1.593.106-2.556zm2.94-4.508c.845.522 1.482.023 1.482-1.163 0-1.487 1.33-2.079 4.667-2.079 3.684 0 4.667-.53 4.667-2.515 0-1.783-1.181-2.689-4.06-3.11-2.231-.329-4.367-.097-4.745.514-.377.611-1.286 1.111-2.02 1.111-.733 0-.962-.6-.509-1.333.453-.733-.111-1.333-1.254-1.333-1.144 0-2.08-.6-2.08-1.334 0-.733 3.3-1.333 7.334-1.333h7.334V118.48l-4.167.834c-2.292.458-5.592.833-7.333.833-3.065 0-3.172.353-3.322 11-.164 11.707-.51 11.583-1.859-.667-.465-4.216-1.305-7.666-1.868-7.666-2.255 0-4.118 7.293-4.118 16.125 0 8.97.155 9.42 3.991 11.603 3.38 1.923 3.996 3.09 4.02 7.605.02 3.56.417 4.723 1.194 3.496.64-1.01 1.83-1.425 2.646-.921zm-23.153-12.524c-.436-.706 1.031-1.756 3.26-2.334 2.23-.578 4.052-1.5 4.048-2.05-.004-.55-.007-1.9-.007-3s-.881-2-1.958-2c-1.212 0-1.66.78-1.174 2.044.667 1.738.278 1.813-2.603.5-2.219-1.01-3.15-2.29-2.7-3.71.594-1.875.492-1.897-.752-.168-1.59 2.21-1.989 9.714-.59 11.112 1.37 1.37 3.368 1.051 2.475-.394zm59.68-5.151c-1.809-1.118-1.768-6.9.048-6.9.656 0 .886.8.51 1.778-.375.978.175 1.778 1.221 1.778 1.047 0 2.224-1.277 2.616-2.838.857-3.416 5.894-7.11 5.894-4.323 0 1.126 2.02 1.851 5.666 2.033 3.117.156 4.968-.18 4.114-.747-1.167-.775-1.125-1.616.17-3.387 1.637-2.239 1.755-2.232 2.375.14.926 3.543 5.928 4.622 6.756 1.458.441-1.688-.26-2.746-2.218-3.354-1.575-.488-4.43-1.99-6.346-3.34-2.739-1.927-4.382-2.193-7.692-1.243-2.6.745-3.915.73-3.44-.04.425-.687-.122-1.248-1.214-1.248s-2.178 1.312-2.412 2.916c-.406 2.782-.534 2.808-2.76.571-1.283-1.29-2.342-1.852-2.353-1.25-.011.603-.602.196-1.313-.904-1.007-1.558-1.297-1.19-1.313 1.667-.029 5.2-2.662 4.574-2.807-.667l-.12-4.333-1.386 4.666c-.762 2.567-1.658 3.917-1.991 3-.333-.916-2.291-1.666-4.352-1.666-4.386 0-6.274-3.335-2.976-5.258 2.958-1.724 1.395-1.767-3.032-.084-3.308 1.257-3.464 1.744-3.087 9.61l.397 8.287 7.327-.394c4.03-.216 7.77-1.091 8.313-1.944.919-1.445 1.594 1.484 1.191 5.166-.083.761 1.189 1.485 2.826 1.608 1.757.132 2.325-.178 1.387-.758zm-15.045-13.567c0-.733.636-1.333 1.412-1.333.777 0 1.041.6.588 1.333-.453.734-1.088 1.334-1.412 1.334-.323 0-.588-.6-.588-1.334zm-8.41-.974c-.337-1.297-.636-.559-.663 1.641-.027 2.2.25 3.262.614 2.359.366-.903.388-2.703.05-4zm177.508 2.312c54.296-.004 57.737-.144 57.312-2.338-.425-2.19-5.338-2.333-80.764-2.333H243.84v6.42l23-.873c12.65-.48 48.994-.874 80.764-.876zm-119.764-2.004c0-1.1-.236-2-.524-2-.289 0-.87.9-1.292 2-.422 1.1-.186 2 .524 2s1.292-.9 1.292-2zm-85.334-7.01c0-.23-1.16.204-2.579.963-4.6 2.462-9.447 1.56-13.523-2.517-2.144-2.144-3.898-4.947-3.898-6.229 0-2.445-3.635-7.207-5.502-7.207-.6 0 .394 2.79 2.206 6.198 1.813 3.41 3.296 7.345 3.296 8.746 0 1.43.61 2.17 1.392 1.686.765-.473 2.118-.257 3.005.48 2.69 2.232 10.738 2.39 13.27.26 1.283-1.08 2.333-2.15 2.333-2.38zm55.578.76c-.426-1.064-.742-.748-.806.805-.058 1.406.257 2.193.7 1.75.443-.443.49-1.593.106-2.555zm19.746.265c.467-.756-.068-.98-1.255-.524-2.31.886-2.732 1.842-.814 1.842.69 0 1.621-.593 2.07-1.318zm-43.642 65.708c1.659-.318 4.059-.306 5.334.027 1.275.334-.083.595-3.016.58-2.933-.015-3.976-.288-2.318-.607zm-31.682-3.057c0-.733.636-1.333 1.412-1.333.777 0 1.041.6.588 1.333-.453.734-1.088 1.334-1.412 1.334-.323 0-.588-.6-.588-1.334zm-39.641-10.257c1.297-.338 3.097-.316 4 .05.903.365-.159.641-2.359.614-2.2-.027-2.938-.326-1.641-.664zm7.308-1.292c.917-.37 2.417-.37 3.333 0 .917.37.167.672-1.666.672-1.834 0-2.584-.302-1.667-.672z"/></svg>